<?xml version="1.0" standalone="no"?>
<!DOCTYPE svg PUBLIC "-//W3C//DTD SVG 20010904//EN"
 "http://www.w3.org/TR/2001/REC-SVG-20010904/DTD/svg10.dtd">
<svg version="1.0" xmlns="http://www.w3.org/2000/svg"
 width="150.000000pt" height="40.000000pt" viewBox="0 0 150.000000 40.000000"
 preserveAspectRatio="xMidYMid meet">

<g transform="translate(0.000000,40.000000) scale(0.100000,-0.100000)"
fill="#000000" stroke="none">
<path d="M203 302 l-23 -17 24 -1 c17 -1 23 3 19 11 -3 10 4 13 26 13 17 -1
34 2 38 5 15 16 -64 5 -84 -11z"/>
<path d="M280 290 c-8 -5 -10 -10 -5 -10 6 0 17 5 25 10 8 5 11 10 5 10 -5 0
-17 -5 -25 -10z"/>
<path d="M320 271 c0 -6 4 -13 10 -16 6 -3 7 1 4 9 -7 18 -14 21 -14 7z"/>
<path d="M440 195 c0 -43 4 -75 10 -75 6 0 10 18 10 40 0 47 13 52 30 10 16
-39 26 -38 47 8 l17 37 4 -48 c2 -27 8 -47 13 -45 6 2 10 7 10 11 -1 4 -1 36
-1 72 0 77 -17 87 -45 25 -10 -22 -21 -40 -25 -40 -5 0 -15 18 -24 40 -9 22
-23 40 -31 40 -12 0 -15 -15 -15 -75z"/>
<path d="M607 264 c-8 -8 1 -24 14 -24 5 0 9 7 9 15 0 15 -12 20 -23 9z"/>
<path d="M830 246 c0 -19 -4 -23 -20 -19 -29 8 -50 -14 -50 -52 0 -40 16 -54
58 -53 l32 1 0 74 c0 42 -4 73 -10 73 -5 0 -10 -11 -10 -24z m-2 -80 c-4 -30
-42 -28 -46 3 -2 13 2 27 9 32 18 11 41 -10 37 -35z"/>
<path d="M880 195 l0 -75 33 0 c42 0 58 12 57 41 0 13 0 37 0 53 -1 40 -16 56
-56 56 l-34 0 0 -75z m59 42 c13 -16 5 -27 -21 -27 -18 0 -25 20 -11 33 10 10
19 8 32 -6z m8 -62 c7 -19 4 -22 -22 -27 -14 -2 -21 3 -23 20 -3 17 2 22 18
22 11 0 23 -7 27 -15z"/>
<path d="M1202 198 c2 -46 7 -73 16 -76 7 -2 12 6 12 20 l0 23 19 -24 c10 -13
24 -22 30 -20 9 3 7 12 -7 29 -20 25 -20 25 0 52 15 22 16 28 5 28 -8 0 -22
-10 -30 -22 -16 -22 -16 -22 -16 20 -1 31 -5 42 -16 42 -13 0 -15 -12 -13 -72z"/>
<path d="M220 240 c-9 -6 -10 -10 -3 -10 6 0 15 5 18 10 8 12 4 12 -15 0z"/>
<path d="M276 231 c-4 -5 3 -7 14 -4 23 6 26 13 6 13 -8 0 -17 -4 -20 -9z"/>
<path d="M181 214 c0 -11 3 -14 6 -6 3 7 2 16 -1 19 -3 4 -6 -2 -5 -13z"/>
<path d="M319 214 c-8 -10 -23 -14 -40 -12 -16 3 -26 2 -24 -2 2 -3 -14 -5
-35 -5 -49 0 -58 -10 -35 -35 11 -13 16 -30 13 -50 l-5 -30 60 0 c60 0 75 8
24 12 -19 2 -27 8 -28 23 -1 17 -2 16 -9 -5 l-8 -25 -2 25 -2 25 -8 -25 -8
-25 -1 28 c-1 26 1 27 45 27 27 0 51 6 60 15 14 13 7 15 -63 17 l-78 2 80 6
c44 3 74 7 66 8 -11 2 -10 6 4 22 10 11 16 20 13 20 -3 0 -11 -7 -19 -16z
m-41 -61 c-16 -2 -40 -2 -55 0 -16 2 -3 4 27 4 30 0 43 -2 28 -4z"/>
<path d="M610 175 c0 -30 5 -55 10 -55 6 0 10 25 10 55 0 30 -4 55 -10 55 -5
0 -10 -25 -10 -55z"/>
<path d="M650 173 c0 -65 22 -70 30 -7 7 56 34 53 38 -3 4 -56 22 -55 22 1 0
50 -12 63 -57 63 l-33 0 0 -54z"/>
<path d="M1007 223 c-13 -12 -7 -20 14 -19 12 1 24 -5 27 -13 3 -8 0 -11 -6
-7 -20 12 -53 -13 -50 -37 2 -18 11 -23 46 -25 l42 -3 0 40 c0 23 -7 46 -16
55 -16 16 -46 21 -57 9z m43 -68 c0 -8 -6 -15 -14 -15 -17 0 -28 14 -19 24 12
12 33 6 33 -9z"/>
<path d="M1100 173 c0 -29 5 -53 10 -53 6 0 10 15 10 33 0 17 4 38 9 46 15 23
31 2 31 -40 0 -28 4 -39 15 -39 11 0 15 11 15 36 0 55 -15 74 -55 72 l-35 -1
0 -54z"/>
</g>
</svg>
