<?xml version="1.0" standalone="no"?>
<!DOCTYPE svg PUBLIC "-//W3C//DTD SVG 20010904//EN"
 "http://www.w3.org/TR/2001/REC-SVG-20010904/DTD/svg10.dtd">
<svg version="1.0" xmlns="http://www.w3.org/2000/svg"
 width="250.000000pt" height="250.000000pt" viewBox="0 0 250.000000 250.000000"
 preserveAspectRatio="xMidYMid meet">

<g transform="translate(0.000000,250.000000) scale(0.100000,-0.100000)"
fill="#000000" stroke="none">
<path d="M1064 2111 c-42 -19 -86 -68 -98 -107 -5 -17 -17 -23 -55 -28 -104
-14 -191 -111 -191 -214 0 -40 -4 -48 -44 -83 -56 -50 -80 -109 -74 -183 6
-67 36 -115 97 -157 27 -18 53 -46 66 -72 16 -32 33 -48 70 -67 45 -22 64 -25
203 -28 160 -4 194 2 227 39 17 18 18 17 53 -9 34 -26 40 -27 181 -30 130 -3
153 -1 203 18 56 21 118 76 118 104 0 8 21 26 46 41 68 40 104 103 104 179 -1
80 -26 136 -81 176 -40 29 -43 34 -41 73 2 30 -5 58 -25 97 -35 69 -89 108
-160 116 -43 6 -52 10 -57 30 -3 12 -18 37 -33 55 -58 69 -173 90 -248 45
l-39 -24 -35 24 c-45 30 -127 32 -187 5z m141 -51 c51 -19 55 -48 55 -419 0
-228 -4 -348 -11 -364 -17 -37 -50 -50 -109 -45 -65 6 -85 26 -85 81 0 36 -3
42 -22 45 -18 3 -24 -4 -32 -33 -6 -24 -6 -46 0 -62 14 -36 14 -36 -51 -30
-75 6 -120 32 -144 81 -18 36 -18 41 -2 98 17 60 15 78 -8 78 -12 0 -33 -40
-51 -95 -6 -18 -10 -16 -46 22 -35 38 -39 47 -39 96 0 68 28 113 90 145 53 26
89 28 153 5 37 -13 50 -14 59 -5 32 32 -70 86 -146 78 l-38 -4 4 43 c7 56 41
103 92 126 62 28 78 25 98 -21 13 -32 27 -45 63 -61 51 -23 103 -20 125 6 24
29 4 45 -53 45 -64 0 -91 22 -91 74 0 87 102 149 189 116z m285 -11 c45 -25
62 -53 63 -102 1 -55 -24 -77 -90 -77 -41 0 -55 -4 -60 -17 -7 -18 29 -53 56
-53 66 0 151 58 151 102 0 18 5 20 42 15 48 -6 84 -30 116 -78 21 -30 23 -41
17 -96 l-7 -63 41 -16 c102 -41 129 -171 52 -253 -36 -39 -48 -39 -56 0 -9 40
-75 106 -116 116 -28 8 -34 15 -46 62 -21 85 -86 156 -136 149 -34 -5 -30 -47
7 -68 40 -22 67 -61 69 -99 2 -29 -2 -34 -37 -46 -91 -32 -161 -154 -111 -195
24 -20 45 -4 45 33 0 20 9 46 21 61 82 104 259 53 259 -75 0 -85 -74 -119
-258 -119 -139 0 -176 13 -193 69 -7 24 -9 152 -7 374 l3 339 33 29 c40 36 88
38 142 8z"/>
<path d="M1045 1710 c-11 -18 4 -44 35 -62 77 -44 33 -141 -53 -117 -42 11
-57 6 -57 -21 0 -25 29 -40 80 -40 52 0 96 22 115 60 19 37 19 50 -1 100 -22
54 -102 108 -119 80z"/>
<path d="M796 1132 l-129 -3 7 -46 c11 -85 60 -140 133 -150 40 -5 41 -6 46
-51 3 -32 12 -51 26 -61 20 -13 21 -22 21 -207 l0 -193 -37 -3 c-33 -3 -38 -6
-38 -28 l0 -25 459 -3 c267 -1 464 2 469 7 5 5 6 18 2 30 -5 17 -15 21 -46 21
l-39 0 0 195 c0 113 4 195 9 195 23 0 41 34 41 76 0 43 1 44 34 44 69 0 136
70 144 149 l5 51 -184 1 c-101 0 -321 1 -489 2 -168 1 -363 1 -434 -1z m1044
-66 c0 -8 -13 -28 -29 -45 l-29 -31 -492 0 -492 0 -35 35 c-19 19 -32 39 -28
45 4 7 191 10 556 10 463 0 549 -2 549 -14z m-180 -166 l0 -30 -375 0 -375 0
0 30 0 30 375 0 375 0 0 -30z m-50 -285 l0 -195 -40 0 -40 0 -2 168 -3 167
-24 3 c-13 2 -27 -2 -32 -10 -5 -7 -5 -84 -2 -170 l6 -158 -41 0 -42 0 -2 168
-3 167 -25 0 -25 0 -3 -167 -2 -168 -40 0 -40 0 0 169 c0 141 -2 170 -15 175
-8 3 -22 3 -30 0 -13 -5 -15 -34 -15 -175 l0 -169 -40 0 -40 0 -2 167 c-3 157
-4 168 -22 171 -39 8 -45 -20 -39 -184 l6 -154 -46 0 -47 0 0 195 0 195 325 0
325 0 0 -195z"/>
</g>
</svg>
