<?xml version="1.0" standalone="no"?>
<!DOCTYPE svg PUBLIC "-//W3C//DTD SVG 20010904//EN"
 "http://www.w3.org/TR/2001/REC-SVG-20010904/DTD/svg10.dtd">
<svg version="1.0" xmlns="http://www.w3.org/2000/svg"
 width="250.000000pt" height="250.000000pt" viewBox="0 0 250.000000 250.000000"
 preserveAspectRatio="xMidYMid meet">

<g transform="translate(0.000000,250.000000) scale(0.100000,-0.100000)"
fill="#000000" stroke="none">
<path d="M1051 1982 c-19 -9 -42 -31 -50 -49 -12 -24 -24 -32 -52 -37 -67 -11
-119 -74 -119 -145 0 -20 -8 -34 -26 -46 -76 -49 -68 -187 14 -229 16 -8 35
-28 42 -45 20 -49 68 -65 191 -66 88 0 110 3 126 17 18 17 21 17 58 -2 50 -26
168 -27 240 -2 40 13 54 25 70 54 11 21 25 38 31 38 21 0 73 68 79 104 9 45
-24 122 -59 138 -22 9 -26 18 -26 51 0 70 -63 137 -128 137 -13 0 -26 11 -34
27 -30 62 -116 90 -179 58 -27 -14 -32 -14 -51 0 -30 20 -85 19 -127 -3z m111
-39 c16 -15 18 -37 18 -264 0 -245 0 -248 -22 -263 -46 -33 -108 -7 -108 45 0
19 -5 29 -15 29 -16 0 -30 -42 -21 -65 4 -12 -4 -15 -40 -15 -35 0 -51 6 -71
26 -23 23 -25 31 -19 79 7 63 -7 80 -25 30 -15 -40 -22 -42 -49 -15 -26 26
-27 96 -2 126 34 43 94 56 147 32 19 -8 29 -8 37 0 15 15 -47 52 -89 52 -29 0
-33 3 -33 26 0 35 59 94 94 94 15 0 26 -6 26 -13 0 -26 49 -61 85 -61 35 0 65
18 52 30 -3 4 -23 8 -44 10 -44 3 -66 28 -58 64 14 59 96 91 137 53z m177 2
c30 -15 41 -33 41 -69 0 -32 -19 -46 -62 -46 -44 0 -53 -24 -15 -41 32 -14 93
11 109 45 6 15 17 26 24 26 58 0 107 -62 98 -121 -5 -31 -3 -38 14 -44 12 -3
33 -20 48 -38 21 -25 25 -38 21 -70 -3 -21 -16 -50 -28 -63 l-23 -24 -20 37
c-12 20 -38 45 -58 56 -21 10 -38 26 -38 35 0 21 -37 82 -59 99 -25 19 -51 16
-51 -7 0 -11 5 -20 10 -20 18 0 60 -48 60 -68 0 -12 -11 -24 -30 -32 -42 -17
-80 -65 -80 -101 0 -22 5 -29 20 -29 15 0 20 7 20 25 0 60 76 93 139 60 50
-25 57 -91 15 -124 -23 -18 -41 -21 -135 -21 -149 0 -141 -17 -137 285 3 221
4 238 22 251 25 18 60 18 95 -1z"/>
<path d="M1044 1719 c-3 -6 7 -23 24 -39 49 -44 23 -91 -41 -75 -32 8 -47 -13
-22 -32 66 -47 154 35 115 108 -14 26 -67 52 -76 38z"/>
<path d="M800 1306 c0 -45 35 -85 80 -95 30 -6 35 -11 38 -39 2 -18 10 -36 18
-39 11 -4 14 -31 14 -134 l0 -129 -24 0 c-23 0 -41 -22 -29 -34 4 -3 143 -6
310 -6 296 0 303 0 303 20 0 15 -7 20 -25 20 l-25 0 0 129 c0 105 3 130 15
135 9 3 15 19 15 41 0 32 3 35 28 35 37 0 81 46 89 93 l6 37 -407 0 -406 0 0
-34z m758 -28 c-15 -23 -16 -23 -348 -26 -299 -2 -335 -1 -352 14 -10 10 -18
21 -18 26 0 4 165 8 366 8 l366 0 -14 -22z m-108 -88 c0 -19 -7 -20 -250 -20
-202 0 -250 3 -250 13 0 8 3 17 7 20 3 4 116 7 250 7 236 0 243 -1 243 -20z
m-32 -192 l3 -128 -30 0 -30 0 -3 113 c-2 92 -6 112 -18 112 -12 0 -16 -20
-18 -112 -3 -113 -3 -113 -27 -113 l-25 0 0 110 c0 103 -1 110 -20 110 -19 0
-20 -7 -20 -110 l0 -110 -25 0 c-24 0 -24 0 -27 113 -2 92 -6 112 -18 112 -12
0 -16 -20 -18 -113 l-3 -113 -27 3 -27 3 0 104 c0 79 -3 105 -14 109 -24 8
-29 -19 -24 -119 l6 -99 -32 0 -31 0 0 130 0 130 213 -2 212 -3 3 -127z"/>
<path d="M1190 618 c0 -40 -3 -49 -12 -40 -27 27 -82 12 -103 -29 -42 -80 18
-174 90 -141 15 7 26 8 30 2 4 -6 13 -10 21 -10 11 0 14 24 14 135 0 128 -1
135 -20 135 -17 0 -20 -7 -20 -52z m-16 -84 c34 -33 9 -99 -34 -92 -29 4 -45
44 -31 81 12 31 41 36 65 11z"/>
<path d="M1844 657 c-2 -7 -3 -67 -2 -132 3 -105 5 -120 21 -123 14 -3 17 4
17 40 l0 43 36 -42 c20 -24 44 -43 55 -43 26 0 24 9 -12 59 l-32 42 32 39 c36
46 37 50 11 50 -11 0 -35 -17 -55 -37 l-34 -38 -1 78 c0 62 -3 77 -15 77 -9 0
-18 -6 -21 -13z"/>
<path d="M507 538 c-5 -125 -1 -145 27 -135 13 5 16 23 16 82 0 41 3 75 8 75
4 0 19 -27 34 -60 33 -74 52 -77 79 -12 10 26 23 56 28 67 6 14 11 -4 17 -65
7 -69 12 -85 27 -88 15 -3 17 5 17 60 0 35 -3 93 -7 131 -5 59 -8 67 -27 67
-16 0 -29 -17 -56 -77 l-36 -77 -36 77 c-31 65 -41 77 -61 77 -24 0 -24 -1
-30 -122z"/>
<path d="M802 638 c4 -30 43 -33 43 -3 0 13 -8 21 -23 23 -20 3 -23 0 -20 -20z"/>
<path d="M1272 533 l3 -128 34 -3 c48 -5 97 6 116 24 20 20 19 73 -2 96 -15
17 -15 19 0 36 24 26 21 49 -8 77 -20 21 -34 25 -85 25 l-61 0 3 -127z m113
57 c0 -21 -5 -26 -32 -28 -31 -3 -33 -1 -33 28 0 29 2 31 33 28 27 -2 32 -7
32 -28z m-1 -83 c31 -22 16 -52 -27 -55 -36 -3 -37 -3 -37 32 0 31 3 36 23 36
13 0 31 -6 41 -13z"/>
<path d="M802 498 c3 -79 6 -93 21 -96 15 -3 17 6 17 92 0 90 -1 96 -20 96
-20 0 -21 -5 -18 -92z"/>
<path d="M880 495 c0 -88 1 -95 20 -95 18 0 20 7 20 63 0 73 9 90 41 85 22 -3
24 -9 29 -73 4 -56 8 -70 23 -73 15 -3 17 6 17 76 0 64 -4 82 -18 95 -21 19
-63 22 -79 6 -8 -8 -13 -8 -17 0 -4 6 -14 11 -22 11 -11 0 -14 -19 -14 -95z"/>
<path d="M1497 583 c-19 -19 -5 -33 33 -33 22 0 40 -2 40 -4 0 -2 3 -12 7 -21
5 -15 1 -16 -26 -10 -43 9 -81 -15 -81 -54 0 -44 27 -61 91 -58 l54 2 3 72 c2
62 0 75 -18 93 -20 20 -88 29 -103 13z m67 -99 c22 -8 20 -31 -3 -44 -25 -13
-51 -3 -51 20 0 25 25 35 54 24z"/>
<path d="M1660 492 c0 -84 2 -93 18 -90 13 2 18 15 20 53 4 85 9 97 40 93 26
-3 27 -6 32 -73 4 -56 8 -70 23 -73 15 -3 17 6 17 76 0 99 -10 111 -93 109
l-57 -1 0 -94z"/>
</g>
</svg>
